<svg xmlns="http://www.w3.org/2000/svg" xmlns:xlink="http://www.w3.org/1999/xlink" version="1.0" x="0px" y="0px" viewBox="0 0 100 125" enable-background="new 0 0 100 100" xml:space="preserve"><path d="M22.429,78.174h-4.677L12.064,66.22l5.379-5.378L22.429,78.174L22.429,78.174z M57.945,63.949l-4.922,14.225h-4.677  l1.846-14.225H57.945L57.945,63.949z M36.85,61.61v4.385l-19.975-7.893L9.178,65.8v12.374H4.5V60.051v-1.559l3.118-3.118  l2.339-2.338v-17.79c0-0.646-0.523-1.169-1.169-1.169S7.619,34.6,7.619,35.246L7.618,52.067L4.5,55.186V34.133  c0-5.059,4.101-9.159,9.159-9.159l62.542-0.001l0.146-0.006h9.316c2.512,0,4.71-1.345,5.912-3.36  c1.065-1.785,3.743-0.188,2.678,1.597c-1.741,2.92-4.936,4.882-8.59,4.882h-0.894l8.303,13.982v1.285  c0,2.218-1.798,4.016-4.016,4.016h-4.691h-5.56h-6.819v1.583l4.987,1.59l-4.18,7.239c-1.021,1.768-3.078,3.256-4.961,3.697v16.696  h-4.677L59.575,61.61H36.85L36.85,61.61z"/></svg>