<svg xmlns="http://www.w3.org/2000/svg" xmlns:xlink="http://www.w3.org/1999/xlink" version="1.1" x="0px" y="0px" viewBox="0 0 48 60" enable-background="new 0 0 48 48" xml:space="preserve"><g><g><path fill="#000000" d="M29.6,26.1c-0.1,0.1-0.2,0.1-0.4,0.2C29,26.3,8.7,31,1,38.1c0.2,0.6,0.6,1.2,1,1.8c0.7,1.1,2,3,2.5,3.5    C4.9,44,6.8,45.3,7.9,46c1.8,1.3,3.6,1.7,5.7,1.4c4.1-0.7,8.7-4.7,13.3-11.5c4.7-6.8,13-5.9,19-3.6C37,21.5,29.7,26.1,29.6,26.1z"/><path fill="#000000" d="M0.6,34.3c-0.1,0.4-0.1,0.8-0.1,1.2c5.2-4.1,13.9-7.4,20.3-9.3c0.8-2.2,3.6-11,0.6-18.4    c-1.2-3-3.3-5.4-6.2-7.3c2.6,6.1,4.1,15.3-3.2,20.3C5.3,25.5,1.3,30.2,0.6,34.3z"/></g><g><polygon fill="#000000" points="37.7,12.3 34.8,15.2 37.4,17.8 40.2,14.9   "/><polygon fill="#000000" points="33.3,16.7 30.5,19.6 33,22.1 35.9,19.3   "/><path fill="#000000" d="M43.5,18.2l-1.8-1.8l-2.8,2.9l2.3,2.3C42,20.4,42.8,19.3,43.5,18.2z"/><path fill="#000000" d="M44.6,16.3c0.7-1.3,1.3-2.7,1.8-3.9L46,12l-2.8,2.9L44.6,16.3z"/><polygon fill="#000000" points="39.2,10.8 41.7,13.4 44.5,10.5 42,8   "/><polygon fill="#000000" points="29,18.1 31.8,15.2 29.3,12.6 26.5,15.5   "/><path fill="#000000" d="M33.6,5.3l2.8-2.9L36.1,2c-1.2,0.5-2.5,1.1-3.9,1.8L33.6,5.3z"/><polygon fill="#000000" points="31.5,23.6 29,21.1 26.5,23.6 29.1,26.1   "/><polygon fill="#000000" points="25,22.1 27.5,19.6 25,17 22.5,19.5   "/><polygon fill="#000000" points="33.6,8.3 30.8,11.1 33.3,13.7 36.2,10.8   "/><polygon fill="#000000" points="23.6,23.6 21.5,21.4 21.3,25.9   "/><path fill="#000000" d="M37.4,20.8l-2.8,2.9l2.6,2.6c1-1,1.9-2,2.7-3L37.4,20.8z"/><polygon fill="#000000" points="35.1,6.8 37.7,9.3 40.5,6.5 38,3.9   "/><path fill="#000000" d="M43.5,6.5L46,9l1.5-1.5c0.1-1.7-0.2-3.1-0.9-4.2L43.5,6.5z"/><path fill="#000000" d="M39.5,2.4L42,5l3.1-3.1c-1.1-0.7-2.5-1-4.2-0.9L39.5,2.4z"/><polygon fill="#000000" points="31.2,27 34.7,26.8 33,25.1   "/><path fill="#000000" d="M32.2,6.8L30.4,5c-1.1,0.7-2.2,1.5-3.3,2.4l2.3,2.3L32.2,6.8z"/><path fill="#000000" d="M25,14l2.8-2.9l-2.5-2.5c-1,0.8-2,1.8-3,2.7L25,14z"/><polygon fill="#000000" points="23.5,15.5 21.8,13.8 21.6,17.4   "/><polygon fill="#000000" points="25,25.1 22.7,27.4 27.1,27.2   "/></g></g><text x="0" y="63" fill="#000000" font-size="5px" font-weight="bold" font-family="'Helvetica Neue', Helvetica, Arial-Unicode, Arial, Sans-serif">Created by Creative Stall</text><text x="0" y="68" fill="#000000" font-size="5px" font-weight="bold" font-family="'Helvetica Neue', Helvetica, Arial-Unicode, Arial, Sans-serif">from the Noun Project</text></svg>