<svg xmlns="http://www.w3.org/2000/svg" xmlns:xlink="http://www.w3.org/1999/xlink" version="1.1" x="0px" y="0px" viewBox="0 0 5 6.25" enable-background="new 0 0 5 5" xml:space="preserve"><g><path fill="#000000" d="M4.16,2.567C4.118,2.483,4.069,2.396,4.01,2.318C3.975,2.273,3.92,2.24,3.871,2.206   C3.842,2.185,3.829,2.168,3.855,2.135c0.095-0.118,0.11-0.26,0.1-0.405C3.939,1.495,3.812,1.317,3.657,1.158   c-0.159-0.165-0.36-0.243-0.583-0.281C2.94,0.858,2.825,0.902,2.71,0.949C2.651,0.974,2.593,1.003,2.536,1.033   C2.5,1.021,2.463,1.011,2.421,1.007c-0.225-0.024-0.439-0.004-0.637,0.11C1.591,1.233,1.422,1.369,1.343,1.588   C1.294,1.726,1.271,1.865,1.332,2.007C1.346,2.044,1.33,2.062,1.296,2.071C1.24,2.091,1.177,2.108,1.132,2.143   c-0.076,0.06-0.147,0.128-0.214,0.198c-0.112,0.13-0.154,0.28-0.131,0.445C0.811,2.954,0.898,3.098,1.012,3.22   c0.045,0.05,0.114,0.078,0.165,0.125C1.25,3.409,1.334,3.443,1.424,3.471C1.527,3.5,1.632,3.525,1.735,3.551   c0.013,0,0.028,0.008,0.041,0.005c0.124-0.024,0.253-0.03,0.356-0.118C2.176,3.403,2.186,3.407,2.2,3.459   C2.208,3.5,2.219,3.541,2.227,3.579C2.236,3.64,2.245,3.697,2.242,3.762C2.241,3.803,2.244,3.842,2.25,3.887   C2.259,3.934,2.269,3.983,2.28,4.03c0.008,0.046,0.033,0.085,0.086,0.097C2.457,4.136,2.545,4.042,2.526,3.95   C2.522,3.938,2.519,3.921,2.518,3.903c-0.007-0.099-0.013-0.197-0.019-0.29c0.004-0.011,0.005-0.025,0.009-0.034   C2.524,3.5,2.558,3.434,2.595,3.366c0.042-0.014,0.083-0.028,0.122-0.045c0.078,0.095,0.19,0.136,0.294,0.188   c0.011,0.005,0.026,0.005,0.041,0.005C3.16,3.518,3.266,3.521,3.373,3.521c0.092-0.004,0.184-0.013,0.271-0.059   C3.706,3.438,3.78,3.426,3.838,3.391C3.979,3.303,4.101,3.186,4.17,3.034C4.237,2.883,4.236,2.72,4.16,2.567z M4.095,2.95   C4.067,3.062,3.994,3.139,3.916,3.21C3.704,3.399,3.452,3.459,3.173,3.434C3.085,3.426,2.999,3.425,2.919,3.382   c-0.044-0.02-0.083-0.05-0.124-0.079C2.79,3.298,2.787,3.295,2.783,3.287c0.017-0.009,0.036-0.019,0.053-0.03   C2.907,3.248,2.98,3.244,3.045,3.22c0.104-0.039,0.201-0.105,0.299-0.157C3.357,3.051,3.371,3.025,3.365,3.01   C3.361,2.997,3.337,2.976,3.32,2.976C3.246,2.974,3.172,2.974,3.097,2.974C3.134,2.93,3.131,2.907,3.07,2.89   C3.048,2.883,3.022,2.892,3.001,2.896C2.976,2.903,2.951,2.92,2.926,2.924c-0.063,0.009-0.122,0.03-0.181,0.052   c-0.04,0.021-0.079,0.041-0.116,0.066c-0.044,0.03-0.087,0.062-0.132,0.09c-0.008,0.007-0.023,0.015-0.03,0.011   C2.458,3.135,2.451,3.122,2.453,3.113C2.457,3.048,2.467,2.987,2.47,2.924c0-0.004,0-0.008,0-0.008   c0.003-0.121,0.005-0.243,0.005-0.361C2.474,2.533,2.457,2.496,2.45,2.496C2.423,2.5,2.386,2.508,2.374,2.524   C2.332,2.584,2.285,2.643,2.25,2.706C2.236,2.733,2.226,2.757,2.217,2.785C2.189,2.869,2.173,2.95,2.171,3.034   c-0.002,0.067,0.006,0.139,0.031,0.21C2.147,3.201,2.088,3.16,2.039,3.113C2.009,3.085,1.987,3.051,1.94,3.048   c-0.036-0.003-0.068-0.02-0.102-0.031C1.765,2.997,1.693,2.976,1.62,2.96C1.603,2.957,1.576,2.97,1.566,2.983   C1.56,2.995,1.564,3.025,1.574,3.034c0.08,0.08,0.155,0.167,0.248,0.234c0.061,0.047,0.142,0.066,0.214,0.101   c0.028,0.013,0.042,0.03,0.002,0.044C1.992,3.429,1.946,3.45,1.897,3.459C1.811,3.476,1.727,3.457,1.639,3.44   c-0.276-0.05-0.5-0.175-0.654-0.412C0.928,2.941,0.878,2.842,0.882,2.727C0.884,2.63,0.898,2.527,0.956,2.449   c0.057-0.081,0.131-0.147,0.211-0.206c0.062-0.047,0.142-0.084,0.218-0.094c0.099-0.012,0.202,0.006,0.301,0.019   c0.06,0.008,0.107,0.045,0.137,0.1c0.012,0.02,0.029,0.034,0.042,0.051c0.014-0.021,0.03-0.037,0.041-0.062   c0.005-0.013,0.002-0.029-0.003-0.043c-0.021-0.063-0.07-0.107-0.13-0.125C1.676,2.063,1.576,2.054,1.479,2.041   C1.427,2.034,1.402,2.013,1.393,1.962C1.37,1.788,1.416,1.625,1.51,1.479C1.607,1.33,1.754,1.233,1.909,1.166   C2.012,1.117,2.133,1.107,2.25,1.095c0.058-0.008,0.118-0.008,0.174,0.004c0.038,0.009,0.074,0.019,0.109,0.04   c0.008,0.007,0.019,0.01,0.027,0.016c0.095,0.062,0.188,0.129,0.27,0.203C2.89,1.411,2.928,1.482,2.977,1.547   c0.054,0.07,0.051,0.159,0.069,0.241C3.077,1.937,3.07,2.075,2.963,2.196c-0.008,0.01-0.017,0.022-0.021,0.038   c-0.003,0.013,0,0.03,0.002,0.047c0.014-0.004,0.031-0.008,0.04-0.014c0.021-0.015,0.036-0.033,0.053-0.049   c0.111-0.09,0.125-0.212,0.12-0.341C3.157,1.813,3.123,1.754,3.123,1.692C3.121,1.563,3.063,1.47,2.98,1.386   C2.908,1.311,2.835,1.233,2.753,1.168c-0.04-0.026-0.078-0.057-0.12-0.085c0.085-0.037,0.175-0.071,0.265-0.101   C3.004,0.949,3.114,0.97,3.214,1.011c0.108,0.043,0.223,0.084,0.311,0.157c0.131,0.108,0.247,0.242,0.299,0.41   c0.052,0.165,0.052,0.334-0.019,0.5c-0.02,0.043-0.051,0.057-0.102,0.051C3.605,2.112,3.506,2.101,3.408,2.1   C3.346,2.096,3.288,2.125,3.25,2.18C3.241,2.193,3.232,2.209,3.234,2.223C3.237,2.247,3.25,2.271,3.256,2.294   c0.019-0.013,0.04-0.023,0.055-0.041c0.045-0.044,0.099-0.063,0.158-0.057c0.1,0.013,0.206,0.026,0.296,0.064   c0.071,0.026,0.137,0.084,0.184,0.146C4.01,2.483,4.063,2.571,4.097,2.663C4.133,2.753,4.12,2.852,4.095,2.95z"/></g></svg>