<svg xmlns="http://www.w3.org/2000/svg" xmlns:xlink="http://www.w3.org/1999/xlink" version="1.1" x="0px" y="0px" viewBox="0 0 100 125" enable-background="new 0 0 100 100" xml:space="preserve"><path fill="#000000" d="M27.276 2.535h23.35v18.12c0 0 0.109 0.164 0.254 0 0.146-0.163 0.238-0.255 0.42-0.046 0.182 0.21 0.273 0.319 0.482 0.584 0.211 0.264 0.328 0.51 0.557 0.674 0.227 0.164 0.363 0.191 0.492 0.318 0.127 0.128 0.473 0.073 0.574 0.155 0.1 0.082 0.254 0.118 0.354-0.091 0.102-0.21 0.219-0.319 0.438-0.265s0.402 0.183 0.52 0.273c0.119 0.091 0.465 0.374 0.52-0.046 0.055-0.418 0.037-0.547 0.154-0.51 0.119 0.037 0.301 0.236 0.375 0.273 0.072 0.036 0.373 0.091 0.408 0.173 0.037 0.082 0.156 0.255 0.273 0.41 0.119 0.155 0.201 0.374 0.229 0.62 0.027 0.245 0.037 0.519 0.092 0.592 0.055 0.072 0.355 0.2 0.646 0.209 0.291 0.01 0.902-0.072 1.074-0.045 0.174 0.027 0.365 0.219 0.482 0.273 0.119 0.055 0.348 0.045 0.43 0.063s0.41 0.19 0.547 0.292c0.137 0.1 0.482 0.055 0.773-0.064s0.547-0.219 0.693-0.072c0.145 0.145 0.373 0.445 0.428 0.546s0.254 0.383 0.51 0.273 0.219-0.255 0.482-0.573c0.266-0.319 0.428-0.328 0.547-0.238 0.119 0.092 0.154 0.211 0.602 0.246 0.445 0.037 0.637 0.02 0.82-0.164 0.182-0.182 0.373-0.018 0.391 0.109 0.02 0.128-0.062 0.319-0.137 0.438 -0.072 0.119-0.082 0.229 0.037 0.365s0.068 0.291 0.104 0.346c0.033 0.055 0.689-0.082 0.836 0 0.145 0.082 0.264 0.154 0.209 0.364s-0.236 0.583-0.129 0.692c0.109 0.109 0.328 0.174 0.539 0.264 0.209 0.092 0.4 0.266 0.709-0.09 0.311-0.355 0.273-0.593 0.383-0.629 0.109-0.037 0.266 0.045 0.447-0.246s0.455-0.191 0.564-0.092c0.109 0.101 0.311 0.256 0.229 0.429s-0.018 0.246 0.172 0.255c0.191 0.01 0.266-0.055 0.383-0.118 0.119-0.063 0.383-0.055 0.457 0.046 0.072 0.1 0.09 0.383 0 0.482 -0.092 0.1-0.037 0.318 0.164 0.31 0.199-0.009 0.564 0.019 0.701-0.292 0.137-0.309 0.291-0.164 0.41-0.164 0.117 0 0.291-0.035 0.436-0.291 0.146-0.255 0.246-0.137 0.311-0.018 0.064 0.118 0.236 0.465 0.119 0.637 -0.119 0.174-0.191 0.511-0.037 0.738 0.154 0.229 0.42 0.547 0.547 0.373 0.127-0.172 0.154-0.5 0.154-0.601s0.182-0.438 0.301-0.528c0.119-0.092 0.428-0.027 0.465-0.355s-0.018-0.41 0.191-0.556 0.465-0.255 0.482 0.019c0.02 0.273 0.137 0.738 0.256 0.811 0.117 0.072 0.219-0.082 0.346-0.174 0.127-0.09 0.273 0.027 0.338 0.156 0.062 0.127 0.082 0.309 0.291 0.218s0.256-0.137 0.418-0.501c0.164-0.364 0.238-0.346 0.355-0.236 0.119 0.109 0.557 0.063 0.41 0.236 -0.145 0.174-0.4 0.318-0.154 0.41 0.246 0.091 0.664 0.091 0.674 0.246 0.01 0.154 0.146 0.328 0.465 0.346 0.318 0.019 0.42 0.183 0.482 0.301 0.064 0.119 0.082 0.446 0.301 0.446s0.301-0.101 0.383-0.419 0.182-0.438 0.301-0.346c0.119 0.091 0.264 0.264 0.537 0.191 0.273-0.073 0.201-0.174 0.256-0.447s0.199-0.31 0.291-0.337 0.41 0.009 0.537-0.009c0.129-0.019 0.711-0.101 0.756-0.201 0.047-0.1 0.191-0.245 0.273-0.199 0.082 0.045 0.311 0.264 0.402 0.328 0.09 0.062 0.326 0.026 0.4-0.047 0.072-0.072 0.127 0.01 0.209 0.027 0.082 0.02 0.092 0.119 0.219-0.182s0.229-0.236 0.338-0.146c0.109 0.092 0.273 0.027 0.336-0.045 0.064-0.072 0.184-0.109 0.273-0.118 0.092-0.009 0.338-0.392 0.4-0.328 0.064 0.063 0.074 0.456 0.191 0.483 0.119 0.027 0.539 0.082 0.703 0.127 0.162 0.045 1.229 0.055 1.303-0.082 0.072-0.137 0.363-0.684 0.463-0.72 0.102-0.036 0.438 0.073 0.629 0.21s0.693 0.691 0.902 0.711c0.209 0.018 0.355 0.008 0.529 0.236 0.172 0.228 0.619 0.811 0.736 0.811 0.119 0 0.283-0.055 0.475-0.063s0.236 0.027 0.311 0.155c0.072 0.127 0.592 0.527 0.91 0.527s0.674 0.338 0.912 0.475c0.236 0.137 0.428-0.073 0.582 0.146s0.229 0.474 0.693 0.455 0.883-0.019 0.992-0.073 0.455-0.3 0.557-0.191c0.1 0.109 0.264 0.265 0.482 0.184 0.219-0.082 0.328 0 0.328 0v14.111c0 0 0.182 0.027 0.318 0.273s0.219 0.582 0.383 0.609 0.318 0.156 0.428 0.301c0.109 0.146 0.109 0.475 0.256 0.547 0.145 0.073 0.336 0.393 0.363 0.729 0.027 0.338 0 0.675-0.082 1.039 -0.082 0.365 0.119 0.674 0.328 0.747 0.211 0.073 0.666 0.137 0.465 0.364 -0.199 0.229 0.01 0.393 0.119 0.482 0.109 0.092 0.355 0.41 0.355 0.602s-0.238 0.584-0.129 0.666 0.492 0.245 0.547 0.637c0.055 0.393 0.146 0.42 0.402 0.383 0.254-0.036 0.217 0.355 0.199 0.447 -0.018 0.09-0.146 0.218-0.045 0.546 0.1 0.328 0.082 0.61-0.127 0.61 -0.211 0-0.109 0.127 0.045 0.291s0.209 0.273 0.01 0.456c-0.201 0.183-0.184 0.474-0.146 0.601 0.037 0.128 0.164 0.146-0.045 0.401 -0.211 0.255-0.328 0.456-0.365 0.774s-0.182 0.364-0.291 0.438c-0.109 0.072-0.266 0.246-0.311 0.501s-0.254 0.219-0.254 0.347c0 0.127 0.062 0.792 0.154 0.983 0.09 0.191-0.055 0.3-0.174 0.419 -0.117 0.119-0.219 0.318-0.219 0.41 0 0.091 0.055 0.383 0.266 0.556 0.209 0.173 0.299 0.528 0.162 0.683 -0.137 0.155-0.018 0.283 0.047 0.429 0.062 0.146 0 0.374-0.102 0.52 -0.1 0.146-0.082 0.347-0.055 0.429s-0.232 0.479-0.438 0.602c-0.205 0.122-0.314 0.587-0.451 0.806s-0.285 0.491-0.49 0.628 -0.301 0.26-0.123 0.465 0.709 0.752 0.627 0.82 -0.531 0-0.969 0 -2.693 0.957-3.172 1.189c-0.477 0.232-1.488 0.614-1.803 0.778s-1.258 0.833-1.162 0.942 0.369 0.15 0.082 0.342 -2.787 2.051-3.033 2.311c-0.246 0.259-1.436 1.406-2.146 1.625 -0.709 0.219-1.98 1.162-2.35 1.381s-1.039 0.615-1.477 0.793 -2.377 0.956-2.869 1.394c-0.492 0.437-0.643 0.888-0.943 1.024s-2.418 1.463-3.457 2.61 -2.227 3.116-2.527 3.771c-0.301 0.656-1.545 3.239-1.258 5.179 0.287 1.941 0.957 3.977 1.189 4.756s0.438 2.023 0.438 2.378c0 0.355 0.246 1.571 0.041 1.571s-0.287-0.068-0.615 0 -1.012 0.287-0.984 0.492 0.205 0.629-0.219 0.465 -0.479-0.355-0.67-0.396 -0.465-0.383-0.711-0.629 -1.379-0.874-1.885-0.847 -1.025-0.055-1.176-0.055 -0.438 0.082-0.957 0.055 -1.037-0.246-1.707-0.697c-0.67-0.45-1.736-0.956-1.941-0.956s-0.396 0.342-0.848-0.137c-0.449-0.479-0.764-0.766-1.092-0.752s-0.492-0.096-0.725-0.232 -0.533-0.096-0.848-0.096 -0.314-0.109-0.424-0.533 -0.041-0.26-0.273-0.601c-0.232-0.342-0.246-0.766-0.41-1.038 -0.164-0.273-0.219-0.766-0.492-1.312 -0.271-0.547-0.49-0.451-0.518-0.656s-0.014-0.232-0.178-0.355 -0.328-0.246-0.355-0.424 -0.232-0.259-0.342-0.368 0.096-0.874 0.068-1.243 0-0.807-0.273-0.902 -0.369-0.123-0.328-0.465 0.369-1.326 0.15-1.448c-0.219-0.123-0.26-0.137-0.219-0.369s-0.178-0.533-0.807-0.765c-0.629-0.232-1.203-0.834-1.408-1.025 -0.203-0.191-0.449-0.779-0.695-1.258s-1.475-2.035-2.254-2.609 -0.711-0.752-0.738-0.984 -0.26-0.355-0.314-0.547 0.027-1.024-0.26-1.202 -0.287-0.246-0.246-0.505c0.041-0.26-0.178-0.314-0.342-0.479s-0.438-0.314-0.52-0.752 -0.164-0.711-0.232-0.916 -0.246-0.506-0.465-0.67c-0.217-0.164-0.312-0.218-0.367-0.806 -0.055-0.587-0.014-0.874-0.273-1.093s-0.492-0.219-0.67-0.834 -0.52-0.396-0.629-0.533 -0.889-0.561-1.025-0.738 -0.383-0.97-0.561-0.997 -0.656 0.096-0.738-0.15c-0.08-0.245-0.34-0.327-0.49-0.341s-0.219-0.055-0.164-0.26 0.027-0.492-0.164-0.383 -0.205 0.355-0.301-0.082 -0.219-0.355-0.396-0.438 -0.15-0.383-0.26-0.533 -0.461-0.277-0.789-0.314 -0.346-0.164-0.346-0.273 -0.092-0.036-0.383 0.127c-0.291 0.164-0.473 0.164-0.93 0.055 -0.455-0.108-1.529-0.108-1.84-0.218 -0.309-0.109-0.729 0.091-0.91 0.055s-0.619-0.364-0.857-0.438c-0.236-0.073-0.691-0.292-0.855-0.292s-0.4 0.219-0.475 0.475c-0.072 0.255 0.02 0.455-0.164 0.418 -0.182-0.035-0.582-0.272-0.729-0.163 -0.145 0.108-0.363 0.382-0.746 0.382s-0.51 0.037-0.656 0.129c-0.146 0.09-1.258 2.24-1.295 2.496 -0.035 0.254 0.092 0.51-0.145 0.729s-0.273 0.527-0.365 0.746c-0.09 0.219 0.293 0.365 0.146 0.456s-0.291 0.237-0.564 0.292 -0.092 0.328-0.273 0.438 -0.783 0.619-0.82 0.783 -0.182 0.729-0.547 0.602c-0.363-0.129-0.582-0.055-0.984-0.237 -0.4-0.183-0.928-0.055-1.275-0.565 -0.346-0.51-0.619-0.51-1.111-0.711 -0.492-0.199-1.057-0.363-1.256-0.691 -0.201-0.328-0.766-0.311-1.166-0.475 -0.402-0.164-0.711-0.164-0.967-0.437 -0.254-0.273-0.602-0.183-0.783-0.401s-0.256-0.783-0.602-0.983 -0.855-0.31-1.221-0.656 -0.91-0.546-1.184-1.421 -0.676-1.13-0.82-1.422c-0.146-0.291-0.4-1.202-0.346-1.512 0.055-0.311 0.328-1.039-0.402-1.986 -0.729-0.947-0.746-1.402-0.893-1.895 -0.145-0.492-0.619-0.656-0.729-1.002 -0.109-0.347-0.365-0.183-0.674-0.529 -0.311-0.346-0.947-1.057-1.166-1.038S9.757 54.463 9.521 54.1c-0.236-0.365-1.402-1.186-1.512-1.604 -0.109-0.42-0.51-0.675-0.875-0.912 -0.365-0.236-0.656-0.438-1.074-0.947 -0.42-0.51-0.656-1.002-1.002-1.202 -0.348-0.2-1.148-0.091-1.623-0.729 -0.473-0.637-1.146-2.04-1.402-2.277 -0.256-0.236-0.51-0.438-0.766-0.363 -0.254 0.072-0.346 0-0.51-0.273s-0.547-0.164-0.674-0.639c-0.129-0.473-0.092-0.983 0-1.111h27.193V2.535z"/></svg>