<svg xmlns:dc="http://purl.org/dc/elements/1.1/" xmlns:cc="http://creativecommons.org/ns#" xmlns:rdf="http://www.w3.org/1999/02/22-rdf-syntax-ns#" xmlns:svg="http://www.w3.org/2000/svg" xmlns="http://www.w3.org/2000/svg" xmlns:sodipodi="http://sodipodi.sourceforge.net/DTD/sodipodi-0.dtd" xmlns:inkscape="http://www.inkscape.org/namespaces/inkscape" viewBox="0 0 32 40" version="1.1" x="0px" y="0px"><g transform="translate(0,-1020.3622)"><path style="color:#000000;font-style:normal;font-variant:normal;font-weight:normal;font-stretch:normal;font-size:medium;line-height:normal;font-family:sans-serif;text-indent:0;text-align:start;text-decoration:none;text-decoration-line:none;text-decoration-style:solid;text-decoration-color:#000000;letter-spacing:normal;word-spacing:normal;text-transform:none;direction:ltr;writing-mode:lr-tb;baseline-shift:baseline;text-anchor:start;white-space:normal;clip-rule:nonzero;display:inline;overflow:visible;visibility:visible;opacity:1;isolation:auto;mix-blend-mode:normal;color-interpolation:sRGB;color-interpolation-filters:linearRGB;solid-color:#000000;solid-opacity:1;fill:#000000;fill-opacity:1;fill-rule:evenodd;stroke:none;stroke-width:0.26458332;stroke-linecap:round;stroke-linejoin:round;stroke-miterlimit:4;stroke-dasharray:none;stroke-dashoffset:0;stroke-opacity:1;color-rendering:auto;image-rendering:auto;shape-rendering:auto;text-rendering:auto;enable-background:accumulate" d="m 9.76375,1023.3668 c -0.225054,0.533 -0.676344,1.6576 -1.190543,2.4986 -0.474632,0.7765 -1.128052,1.1963 -1.308629,1.6777 -0.252473,0.6729 -0.310736,1.4729 -0.149656,2.1709 0.126046,0.5456 0.616292,1.0923 1.048884,1.7763 0.317209,0.5017 0.855055,1.0037 1.353869,1.573 0.231529,0.1161 0.452851,0.2349 0.653344,0.3652 l 0.0076,0 c 0.838452,0.5455 1.553715,1.3011 2.060335,2.1651 0.215154,0.3667 0.276463,0.7404 0.334726,1.0499 0.05826,0.3093 0.111195,0.5504 0.20868,0.7164 0.191163,0.3261 0.479469,0.6302 0.796983,0.837 0.129473,0.084 0.282937,0.1465 0.44276,0.2092 0.457344,0.1325 0.980606,0.249 1.519175,0.456 0.296265,0.085 0.604982,0.1841 0.907188,0.3551 0.800448,0.4528 1.221844,1.137 1.710072,1.3955 0.280652,0.1485 0.491297,0.4084 0.784439,0.5098 l 0.01904,0 c 0.230005,0.057 0.456164,0.091 0.655286,0.089 0.168315,0 0.388419,-0.08 0.669071,-0.2094 0.280652,-0.1295 0.616787,-0.3058 1.048846,-0.3352 0.349577,-0.023 0.710617,-0.015 1.072494,0.015 0.04608,0 0.09139,0.01 0.137851,0.011 0.165649,0.015 0.329394,0.04 0.493939,0.071 0.226197,0.043 0.448967,0.099 0.669071,0.1738 0.319875,0.075 0.728903,0.045 1.049585,0.2004 0.569397,0.2752 0.94184,0.8117 1.436541,1.2394 -0.476994,-1.1444 -0.836357,-2.3142 -1.420776,-2.9545 -0.532667,-0.5835 -1.33738,-1.0018 -2.156792,-1.2532 -0.173647,-0.053 -0.424253,-0.041 -0.743823,-0.023 -0.319494,0.019 -0.708675,0.052 -1.123674,-0.1046 -0.81926,-0.3064 -1.45105,-0.905 -1.963915,-1.492 -0.61157,-0.6998 -0.758484,-1.5075 -1.115753,-1.9402 -0.532363,-0.6445 -1.629723,-1.0347 -2.357514,-2.0368 -0.318732,-0.4386 -0.526955,-0.9511 -0.615911,-1.4841 -0.07007,-0.4189 0.0033,-0.7859 0.05902,-1.0954 0.05598,-0.3097 0.09063,-0.5638 0.05902,-0.754 -0.137851,-0.8277 -0.482135,-1.6572 -0.974094,-2.3347 -0.535562,-0.7374 -1.689966,-1.7429 -2.692012,-2.5282 -0.747211,-0.5857 -1.093932,-0.8126 -1.383419,-1.0145 z"/><path style="color:#000000;font-style:normal;font-variant:normal;font-weight:normal;font-stretch:normal;font-size:medium;line-height:normal;font-family:sans-serif;text-indent:0;text-align:start;text-decoration:none;text-decoration-line:none;text-decoration-style:solid;text-decoration-color:#000000;letter-spacing:normal;word-spacing:normal;text-transform:none;direction:ltr;writing-mode:lr-tb;baseline-shift:baseline;text-anchor:start;white-space:normal;clip-rule:nonzero;display:inline;overflow:visible;visibility:visible;opacity:1;isolation:auto;mix-blend-mode:normal;color-interpolation:sRGB;color-interpolation-filters:linearRGB;solid-color:#000000;solid-opacity:1;fill:#000000;fill-opacity:1;fill-rule:evenodd;stroke:none;stroke-width:0.26458332;stroke-linecap:round;stroke-linejoin:round;stroke-miterlimit:4;stroke-dasharray:none;stroke-dashoffset:0;stroke-opacity:1;color-rendering:auto;image-rendering:auto;shape-rendering:auto;text-rendering:auto;enable-background:accumulate" d="m 4.334495,1032.3409 c 0.341386,0.086 0.738649,0.176 1.635281,0.4541 1.206309,0.3737 2.627981,0.8997 3.384715,1.3953 0.695496,0.4555 1.310811,1.1051 1.731712,1.8276 0.09672,0.166 0.150708,0.4153 0.208591,0.7243 0.05793,0.3091 0.121671,0.6782 0.334534,1.044 0.271704,0.4664 0.651849,0.8677 1.101999,1.1626 1.030796,0.6753 2.180673,0.6421 2.900622,1.0518 0.482632,0.2748 0.909477,0.9765 1.725807,1.4112 0.411682,0.2195 0.909705,0.6686 1.395571,0.7989 0.001,4e-4 0.002,0 0.004,0 0.004,10e-4 0.0081,10e-4 0.01179,0 0.150003,0.039 0.300419,0.074 0.456547,0.097 0.168088,0.028 0.3406,0.045 0.521484,0.043 l 0.002,0 c 0.221205,0 0.418049,-0.044 0.596263,-0.1046 0.178173,-0.06 0.335834,-0.1344 0.480154,-0.2013 l 0.002,0 c 0.289225,-0.1329 0.521141,-0.2352 0.698589,-0.2467 0.296529,-0.019 0.598409,-0.011 0.897347,0.012 0.07043,0 0.140874,0.01 0.210556,0.018 0.09713,0.01 0.194072,0.026 0.289275,0.041 0.08876,0.015 0.174899,0.04 0.261729,0.06 0.08987,0.022 0.180803,0.04 0.267623,0.067 0.01673,0 0.03214,0.012 0.05118,0.02 0.156401,0.052 0.311774,0.1075 0.454573,0.1796 0.803615,0.406 1.906818,1.2327 2.792024,2.1954 0.717661,0.7803 1.060709,1.2236 1.249593,1.4623 l -1.63529,1.5829 c -0.756271,0.7323 -1.195801,1.5813 -1.792709,1.796 -0.827796,0.2975 -1.920969,0.032 -2.967533,-0.2743 -0.667052,-0.1957 -1.314821,-0.8298 -2.239412,-1.2099 -0.678065,-0.2785 -1.423525,-0.594 -2.261064,-0.6631 -0.942989,-0.078 -1.75944,0.2328 -2.461787,0.298 l -0.0081,0 c -0.898465,0.083 -1.439761,-0.09 -2.092194,-0.2333 -0.737199,-0.1625 -1.465933,-0.5789 -2.068211,-1.1051 -0.5007587,-0.4375 -0.9376887,-0.9662 -1.1079027,-1.5138 -0.0404,-0.1295 -0.3313461,-0.8317 -0.2573461,-1.1803 0.07385,-0.3489 -0.08061,-0.4303 -0.3243323,-0.9076 l 0,-0.01 c -0.374826,-0.7335 -0.7089879,-0.7008 -1.3425299,-1.0263 -0.633543,-0.3252 -1.271669,-0.5824 -1.717939,-0.9176 -0.643094,-0.4832 -1.279669,-0.8186 -1.590022,-1.2829 -0.397183,-0.5943 -0.630338,-1.3579 -0.633653,-2.0743 -0.003,-0.5144 0.453021,-1.1514 0.617905,-2.0447 0.177458,-0.968 0.197428,-2.1734 0.21647,-2.7513 z m 2.0286907,2.986 c -0.217911,-0.02 -0.429848,0 -0.608062,0.1125 -0.398251,0.2563 -0.627748,0.8213 -0.627748,1.3086 0,0.4873 0.296449,0.962 0.627748,1.3064 0.331139,0.3449 0.838608,0.4357 1.257453,0.6533 0.418845,0.2181 0.787182,0.6554 1.255497,0.6554 0.468275,0 1.011078,-0.2408 1.257452,-0.6554 0.220108,-0.3707 0.09632,-0.8823 0,-1.3065 -0.107615,-0.4744 -0.27397,-0.9893 -0.627738,-1.3085 -0.500335,-0.4517 -1.231478,-0.5429 -1.885211,-0.6533 -0.206718,-0.035 -0.43148,-0.093 -0.649391,-0.1125 z m 6.5885413,5.7562 c -0.468275,0 -1.011461,0.2385 -1.257453,0.6532 -0.220107,0.3708 -0.09632,0.8843 0,1.3086 0.107576,0.4742 0.273971,0.9873 0.627739,1.3064 0.500335,0.4519 1.231478,0.543 1.885211,0.6533 0.413435,0.071 0.901025,0.2288 1.257452,0 0.398282,-0.2562 0.627749,-0.8192 0.627749,-1.3066 0,-0.4873 -0.296449,-0.964 -0.627749,-1.3084 -0.331138,-0.3449 -0.838607,-0.4356 -1.257452,-0.6533 -0.418845,-0.2181 -0.787182,-0.6532 -1.255497,-0.6532 z m 8.769164,2.5529 c -0.19366,-0.017 -0.380962,0 -0.539186,0.097 -0.353768,0.2243 -0.558873,0.7184 -0.558873,1.1447 0,0.4265 0.26451,0.8431 0.558873,1.1447 0.294242,0.3018 0.743727,0.3818 1.115772,0.5724 0.372196,0.191 0.699667,0.5724 1.115771,0.5724 0.416145,0 0.899161,-0.2096 1.117747,-0.5724 0.195725,-0.3245 0.08564,-0.7735 0,-1.1447 -0.09562,-0.4151 -0.244712,-0.8655 -0.558873,-1.1448 -0.444588,-0.3947 -1.093767,-0.476 -1.674645,-0.5723 -0.183705,-0.03 -0.382917,-0.079 -0.576586,-0.097 z"/></g><text x="0" y="47" fill="#000000" font-size="5px" font-weight="bold" font-family="'Helvetica Neue', Helvetica, Arial-Unicode, Arial, Sans-serif">Created by anbileru adaleru</text><text x="0" y="52" fill="#000000" font-size="5px" font-weight="bold" font-family="'Helvetica Neue', Helvetica, Arial-Unicode, Arial, Sans-serif">from the Noun Project</text></svg>