<svg xmlns="http://www.w3.org/2000/svg" xmlns:xlink="http://www.w3.org/1999/xlink" version="1.1" x="0px" y="0px" viewBox="0 0 100 125" style="enable-background:new 0 0 100 100;" xml:space="preserve"><g><circle cx="1.2" cy="25.6" r="1.2"/><circle cx="4.7" cy="25.6" r="1.2"/><circle cx="8.2" cy="25.6" r="1.2"/><circle cx="11.7" cy="25.6" r="1.2"/><circle cx="15.2" cy="25.6" r="1.2"/><circle cx="18.6" cy="25.6" r="1.2"/><circle cx="22.1" cy="25.6" r="1.2"/><circle cx="25.6" cy="25.6" r="1.2"/><circle cx="29.1" cy="25.6" r="1.2"/><circle cx="32.6" cy="25.6" r="1.2"/><circle cx="36.1" cy="25.6" r="1.2"/><circle cx="39.5" cy="25.6" r="1.2"/><circle cx="43" cy="25.6" r="1.2"/><circle cx="46.5" cy="25.6" r="1.2"/><circle cx="50" cy="25.6" r="1.2"/><circle cx="53.5" cy="25.6" r="1.2"/><circle cx="57" cy="25.6" r="1.2"/><circle cx="60.5" cy="25.6" r="1.2"/><circle cx="63.9" cy="25.6" r="1.2"/><circle cx="67.4" cy="25.6" r="1.2"/><circle cx="70.9" cy="25.6" r="1.2"/><circle cx="74.4" cy="25.6" r="1.2"/><circle cx="77.9" cy="25.6" r="1.2"/><circle cx="81.4" cy="25.6" r="1.2"/><circle cx="84.8" cy="25.6" r="1.2"/><circle cx="88.3" cy="25.6" r="1.2"/><circle cx="91.8" cy="25.6" r="1.2"/><circle cx="95.3" cy="25.6" r="1.2"/><circle cx="98.8" cy="25.6" r="1.2"/><circle cx="1.2" cy="29.1" r="1.2"/><circle cx="4.7" cy="29.1" r="1.2"/><circle cx="8.2" cy="29.1" r="1.2"/><circle cx="11.7" cy="29.1" r="1.2"/><circle cx="15.2" cy="29.1" r="1.2"/><circle cx="18.6" cy="29.1" r="1.2"/><circle cx="22.1" cy="29.1" r="1.2"/><circle cx="25.6" cy="29.1" r="1.2"/><circle cx="29.1" cy="29.1" r="1.2"/><circle cx="32.6" cy="29.1" r="1.2"/><circle cx="36.1" cy="29.1" r="1.2"/><circle cx="39.5" cy="29.1" r="1.2"/><circle cx="43" cy="29.1" r="1.2"/><circle cx="46.5" cy="29.1" r="1.2"/><circle cx="50" cy="29.1" r="1.2"/><circle cx="53.5" cy="29.1" r="1.2"/><circle cx="57" cy="29.1" r="1.2"/><circle cx="60.5" cy="29.1" r="1.2"/><circle cx="63.9" cy="29.1" r="1.2"/><circle cx="67.4" cy="29.1" r="1.2"/><circle cx="70.9" cy="29.1" r="1.2"/><circle cx="74.4" cy="29.1" r="1.2"/><circle cx="77.9" cy="29.1" r="1.2"/><circle cx="81.4" cy="29.1" r="1.2"/><circle cx="84.8" cy="29.1" r="1.2"/><circle cx="88.3" cy="29.1" r="1.2"/><circle cx="91.8" cy="29.1" r="1.2"/><circle cx="95.3" cy="29.1" r="1.2"/><circle cx="98.8" cy="29.1" r="1.2"/><circle cx="1.2" cy="32.6" r="1.2"/><circle cx="4.7" cy="32.6" r="1.2"/><circle cx="8.2" cy="32.6" r="1.2"/><circle cx="11.7" cy="32.6" r="1.2"/><circle cx="15.2" cy="32.6" r="1.2"/><circle cx="18.6" cy="32.6" r="1.2"/><circle cx="22.1" cy="32.6" r="1.2"/><circle cx="25.6" cy="32.6" r="1.2"/><circle cx="29.1" cy="32.6" r="1.2"/><circle cx="32.6" cy="32.6" r="1.2"/><circle cx="36.1" cy="32.6" r="1.2"/><circle cx="39.5" cy="32.6" r="1.2"/><circle cx="43" cy="32.6" r="1.2"/><circle cx="46.5" cy="32.6" r="1.2"/><circle cx="50" cy="32.6" r="1.2"/><circle cx="53.5" cy="32.6" r="1.2"/><circle cx="57" cy="32.6" r="1.2"/><circle cx="60.5" cy="32.6" r="1.2"/><circle cx="63.9" cy="32.6" r="1.2"/><circle cx="67.4" cy="32.6" r="1.2"/><circle cx="70.9" cy="32.6" r="1.2"/><circle cx="74.4" cy="32.6" r="1.2"/><circle cx="77.9" cy="32.6" r="1.2"/><circle cx="81.4" cy="32.6" r="1.2"/><circle cx="84.8" cy="32.6" r="1.2"/><circle cx="88.3" cy="32.6" r="1.2"/><circle cx="91.8" cy="32.6" r="1.2"/><circle cx="95.3" cy="32.6" r="1.2"/><circle cx="98.8" cy="32.6" r="1.2"/><circle cx="1.2" cy="36.1" r="1.2"/><circle cx="4.7" cy="36.1" r="1.2"/><circle cx="8.2" cy="36.1" r="1.2"/><circle cx="11.7" cy="36.1" r="1.2"/><circle cx="15.2" cy="36.1" r="1.2"/><circle cx="18.6" cy="36.1" r="1.2"/><circle cx="22.1" cy="36.1" r="1.2"/><circle cx="25.6" cy="36.1" r="1.2"/><circle cx="29.1" cy="36.1" r="1.2"/><circle cx="32.6" cy="36.1" r="1.2"/><circle cx="36.1" cy="36.1" r="1.2"/><circle cx="39.5" cy="36.1" r="1.2"/><circle cx="43" cy="36.1" r="1.2"/><circle cx="46.5" cy="36.1" r="1.2"/><circle cx="50" cy="36.1" r="1.2"/><circle cx="53.5" cy="36.1" r="1.2"/><circle cx="57" cy="36.1" r="1.2"/><circle cx="60.5" cy="36.1" r="1.2"/><circle cx="63.9" cy="36.1" r="1.2"/><circle cx="67.4" cy="36.1" r="1.2"/><circle cx="70.9" cy="36.1" r="1.2"/><circle cx="74.4" cy="36.1" r="1.2"/><circle cx="77.9" cy="36.1" r="1.2"/><circle cx="81.4" cy="36.1" r="1.2"/><circle cx="84.8" cy="36.1" r="1.2"/><circle cx="88.3" cy="36.1" r="1.2"/><circle cx="91.8" cy="36.1" r="1.2"/><circle cx="95.3" cy="36.1" r="1.2"/><circle cx="98.8" cy="36.1" r="1.2"/><circle cx="4.7" cy="39.5" r="1.2"/><circle cx="8.2" cy="39.5" r="1.2"/><circle cx="11.7" cy="39.5" r="1.2"/><circle cx="15.2" cy="39.5" r="1.2"/><circle cx="18.6" cy="39.5" r="1.2"/><circle cx="22.1" cy="39.5" r="1.2"/><circle cx="25.6" cy="39.5" r="1.2"/><circle cx="29.1" cy="39.5" r="1.2"/><circle cx="32.6" cy="39.5" r="1.2"/><circle cx="36.1" cy="39.5" r="1.2"/><circle cx="39.5" cy="39.5" r="1.2"/><circle cx="43" cy="39.5" r="1.2"/><circle cx="46.5" cy="39.5" r="1.2"/><circle cx="50" cy="39.5" r="1.2"/><circle cx="53.5" cy="39.5" r="1.2"/><circle cx="57" cy="39.5" r="1.2"/><circle cx="60.5" cy="39.5" r="1.2"/><circle cx="63.9" cy="39.5" r="1.2"/><circle cx="67.4" cy="39.5" r="1.2"/><circle cx="70.9" cy="39.5" r="1.2"/><circle cx="74.4" cy="39.5" r="1.2"/><circle cx="77.9" cy="39.5" r="1.2"/><circle cx="81.4" cy="39.5" r="1.2"/><circle cx="84.8" cy="39.5" r="1.2"/><circle cx="88.3" cy="39.5" r="1.2"/><circle cx="91.8" cy="39.5" r="1.2"/><circle cx="95.3" cy="39.5" r="1.2"/><circle cx="98.8" cy="39.5" r="1.2"/><circle cx="4.7" cy="43" r="1.2"/><circle cx="8.2" cy="43" r="1.2"/><circle cx="11.7" cy="43" r="1.2"/><circle cx="15.2" cy="43" r="1.2"/><circle cx="18.6" cy="43" r="1.2"/><circle cx="22.1" cy="43" r="1.2"/><circle cx="25.6" cy="43" r="1.2"/><circle cx="29.1" cy="43" r="1.2"/><circle cx="32.6" cy="43" r="1.2"/><circle cx="36.1" cy="43" r="1.2"/><circle cx="39.5" cy="43" r="1.2"/><circle cx="43" cy="43" r="1.2"/><circle cx="46.5" cy="43" r="1.2"/><circle cx="50" cy="43" r="1.2"/><circle cx="53.5" cy="43" r="1.2"/><circle cx="57" cy="43" r="1.2"/><circle cx="60.5" cy="43" r="1.2"/><circle cx="63.9" cy="43" r="1.2"/><circle cx="67.4" cy="43" r="1.2"/><circle cx="70.9" cy="43" r="1.2"/><circle cx="74.4" cy="43" r="1.2"/><circle cx="77.9" cy="43" r="1.2"/><circle cx="81.4" cy="43" r="1.2"/><circle cx="84.8" cy="43" r="1.2"/><circle cx="88.3" cy="43" r="1.2"/><circle cx="91.8" cy="43" r="1.2"/><circle cx="95.3" cy="43" r="1.2"/><circle cx="98.8" cy="43" r="1.2"/><circle cx="8.2" cy="46.5" r="1.2"/><circle cx="11.7" cy="46.5" r="1.2"/><circle cx="15.2" cy="46.5" r="1.2"/><circle cx="18.6" cy="46.5" r="1.2"/><circle cx="22.1" cy="46.5" r="1.2"/><circle cx="25.6" cy="46.5" r="1.2"/><circle cx="29.1" cy="46.5" r="1.2"/><circle cx="32.6" cy="46.5" r="1.2"/><circle cx="36.1" cy="46.5" r="1.2"/><circle cx="39.5" cy="46.5" r="1.2"/><circle cx="43" cy="46.5" r="1.2"/><circle cx="46.5" cy="46.5" r="1.2"/><circle cx="50" cy="46.5" r="1.2"/><circle cx="53.5" cy="46.5" r="1.2"/><circle cx="57" cy="46.5" r="1.2"/><circle cx="60.5" cy="46.5" r="1.2"/><circle cx="63.9" cy="46.5" r="1.2"/><circle cx="67.4" cy="46.5" r="1.2"/><circle cx="70.9" cy="46.5" r="1.2"/><circle cx="74.4" cy="46.5" r="1.2"/><circle cx="77.9" cy="46.5" r="1.2"/><circle cx="81.4" cy="46.5" r="1.2"/><circle cx="84.8" cy="46.5" r="1.2"/><circle cx="88.3" cy="46.5" r="1.2"/><circle cx="91.8" cy="46.5" r="1.2"/><circle cx="95.3" cy="46.5" r="1.2"/><circle cx="98.8" cy="46.5" r="1.2"/><circle cx="11.7" cy="50" r="1.2"/><circle cx="15.2" cy="50" r="1.2"/><circle cx="18.6" cy="50" r="1.2"/><circle cx="22.1" cy="50" r="1.2"/><circle cx="25.6" cy="50" r="1.2"/><circle cx="29.1" cy="50" r="1.2"/><circle cx="32.6" cy="50" r="1.2"/><circle cx="36.1" cy="50" r="1.2"/><circle cx="39.5" cy="50" r="1.2"/><circle cx="43" cy="50" r="1.2"/><circle cx="46.5" cy="50" r="1.2"/><circle cx="50" cy="50" r="1.2"/><circle cx="53.5" cy="50" r="1.2"/><circle cx="57" cy="50" r="1.2"/><circle cx="60.5" cy="50" r="1.2"/><circle cx="63.9" cy="50" r="1.2"/><circle cx="67.4" cy="50" r="1.2"/><circle cx="70.9" cy="50" r="1.2"/><circle cx="74.4" cy="50" r="1.2"/><circle cx="77.9" cy="50" r="1.2"/><circle cx="81.4" cy="50" r="1.2"/><circle cx="84.8" cy="50" r="1.2"/><circle cx="88.3" cy="50" r="1.2"/><circle cx="91.8" cy="50" r="1.2"/><circle cx="95.3" cy="50" r="1.2"/><circle cx="98.8" cy="50" r="1.2"/><circle cx="15.2" cy="53.5" r="1.2"/><circle cx="18.6" cy="53.5" r="1.2"/><circle cx="22.1" cy="53.5" r="1.2"/><circle cx="25.6" cy="53.5" r="1.2"/><circle cx="29.1" cy="53.5" r="1.2"/><circle cx="32.6" cy="53.5" r="1.2"/><circle cx="36.1" cy="53.5" r="1.2"/><circle cx="39.5" cy="53.5" r="1.2"/><circle cx="43" cy="53.5" r="1.2"/><circle cx="46.5" cy="53.5" r="1.2"/><circle cx="50" cy="53.5" r="1.2"/><circle cx="53.5" cy="53.5" r="1.2"/><circle cx="57" cy="53.5" r="1.2"/><circle cx="60.5" cy="53.5" r="1.2"/><circle cx="63.9" cy="53.5" r="1.2"/><circle cx="67.4" cy="53.5" r="1.2"/><circle cx="70.9" cy="53.5" r="1.2"/><circle cx="74.4" cy="53.5" r="1.2"/><circle cx="77.9" cy="53.5" r="1.2"/><circle cx="81.4" cy="53.5" r="1.2"/><circle cx="84.8" cy="53.5" r="1.2"/><circle cx="88.3" cy="53.5" r="1.2"/><circle cx="91.8" cy="53.5" r="1.2"/><circle cx="95.3" cy="53.5" r="1.2"/><circle cx="98.8" cy="53.5" r="1.2"/><circle cx="15.2" cy="57" r="1.2"/><circle cx="18.6" cy="57" r="1.2"/><circle cx="22.1" cy="57" r="1.2"/><circle cx="25.6" cy="57" r="1.2"/><circle cx="29.1" cy="57" r="1.2"/><circle cx="32.6" cy="57" r="1.2"/><circle cx="36.1" cy="57" r="1.2"/><circle cx="39.5" cy="57" r="1.2"/><circle cx="43" cy="57" r="1.2"/><circle cx="46.5" cy="57" r="1.2"/><circle cx="50" cy="57" r="1.2"/><circle cx="53.5" cy="57" r="1.2"/><circle cx="57" cy="57" r="1.2"/><circle cx="60.5" cy="57" r="1.2"/><circle cx="63.9" cy="57" r="1.2"/><circle cx="67.4" cy="57" r="1.2"/><circle cx="70.9" cy="57" r="1.2"/><circle cx="74.4" cy="57" r="1.2"/><circle cx="77.9" cy="57" r="1.2"/><circle cx="81.4" cy="57" r="1.2"/><circle cx="84.8" cy="57" r="1.2"/><circle cx="88.3" cy="57" r="1.2"/><circle cx="91.8" cy="57" r="1.2"/><circle cx="95.3" cy="57" r="1.2"/><circle cx="98.8" cy="57" r="1.2"/><circle cx="15.2" cy="60.5" r="1.2"/><circle cx="18.6" cy="60.5" r="1.2"/><circle cx="22.1" cy="60.5" r="1.2"/><circle cx="25.6" cy="60.5" r="1.2"/><circle cx="29.1" cy="60.5" r="1.2"/><circle cx="32.6" cy="60.5" r="1.2"/><circle cx="36.1" cy="60.5" r="1.2"/><circle cx="39.5" cy="60.5" r="1.2"/><circle cx="43" cy="60.5" r="1.2"/><circle cx="46.5" cy="60.5" r="1.2"/><circle cx="50" cy="60.5" r="1.2"/><circle cx="53.5" cy="60.5" r="1.2"/><circle cx="57" cy="60.5" r="1.2"/><circle cx="60.5" cy="60.5" r="1.2"/><circle cx="63.9" cy="60.5" r="1.2"/><circle cx="67.4" cy="60.5" r="1.2"/><circle cx="70.9" cy="60.5" r="1.2"/><circle cx="74.4" cy="60.5" r="1.2"/><circle cx="77.9" cy="60.5" r="1.2"/><circle cx="81.4" cy="60.5" r="1.2"/><circle cx="84.8" cy="60.5" r="1.2"/><circle cx="88.3" cy="60.5" r="1.2"/><circle cx="91.8" cy="60.5" r="1.2"/><circle cx="95.3" cy="60.5" r="1.2"/><circle cx="98.8" cy="60.5" r="1.2"/><circle cx="15.2" cy="63.9" r="1.2"/><circle cx="22.1" cy="63.9" r="1.2"/><circle cx="25.6" cy="63.9" r="1.2"/><circle cx="29.1" cy="63.9" r="1.2"/><circle cx="32.6" cy="63.9" r="1.2"/><circle cx="36.1" cy="63.9" r="1.2"/><circle cx="39.5" cy="63.9" r="1.2"/><circle cx="43" cy="63.9" r="1.2"/><circle cx="46.5" cy="63.9" r="1.2"/><circle cx="50" cy="63.9" r="1.2"/><circle cx="53.5" cy="63.9" r="1.2"/><circle cx="57" cy="63.9" r="1.2"/><circle cx="60.5" cy="63.9" r="1.2"/><circle cx="63.9" cy="63.9" r="1.2"/><circle cx="67.4" cy="63.9" r="1.2"/><circle cx="70.9" cy="63.9" r="1.2"/><circle cx="74.4" cy="63.9" r="1.2"/><circle cx="77.9" cy="63.9" r="1.2"/><circle cx="81.4" cy="63.9" r="1.2"/><circle cx="84.8" cy="63.9" r="1.2"/><circle cx="88.3" cy="63.9" r="1.2"/><circle cx="91.8" cy="63.9" r="1.2"/><circle cx="95.3" cy="63.9" r="1.2"/><circle cx="98.8" cy="63.9" r="1.2"/><circle cx="22.1" cy="67.4" r="1.2"/><circle cx="25.6" cy="67.4" r="1.2"/><circle cx="29.1" cy="67.4" r="1.2"/><circle cx="32.6" cy="67.4" r="1.2"/><circle cx="36.1" cy="67.4" r="1.2"/><circle cx="39.5" cy="67.4" r="1.2"/><circle cx="43" cy="67.4" r="1.2"/><circle cx="46.5" cy="67.4" r="1.2"/><circle cx="50" cy="67.4" r="1.2"/><circle cx="53.5" cy="67.4" r="1.2"/><circle cx="57" cy="67.4" r="1.2"/><circle cx="60.5" cy="67.4" r="1.2"/><circle cx="63.9" cy="67.4" r="1.2"/><circle cx="67.4" cy="67.4" r="1.2"/><circle cx="70.9" cy="67.4" r="1.2"/><circle cx="74.4" cy="67.4" r="1.2"/><circle cx="77.9" cy="67.4" r="1.2"/><circle cx="81.4" cy="67.4" r="1.2"/><circle cx="84.8" cy="67.4" r="1.2"/><circle cx="88.3" cy="67.4" r="1.2"/><circle cx="91.8" cy="67.4" r="1.2"/><circle cx="95.3" cy="67.4" r="1.2"/><circle cx="98.8" cy="67.4" r="1.2"/><circle cx="22.1" cy="70.9" r="1.2"/><circle cx="25.6" cy="70.9" r="1.2"/><circle cx="29.1" cy="70.9" r="1.2"/><circle cx="32.6" cy="70.9" r="1.2"/><circle cx="36.1" cy="70.9" r="1.2"/><circle cx="39.5" cy="70.9" r="1.2"/><circle cx="43" cy="70.9" r="1.2"/><circle cx="46.5" cy="70.9" r="1.2"/><circle cx="50" cy="70.9" r="1.2"/><circle cx="53.5" cy="70.9" r="1.2"/><circle cx="57" cy="70.9" r="1.2"/><circle cx="60.5" cy="70.9" r="1.2"/><circle cx="63.9" cy="70.9" r="1.2"/><circle cx="67.4" cy="70.9" r="1.2"/><circle cx="70.9" cy="70.9" r="1.2"/><circle cx="74.4" cy="70.9" r="1.2"/><circle cx="77.9" cy="70.9" r="1.2"/><circle cx="81.4" cy="70.9" r="1.2"/><circle cx="84.8" cy="70.9" r="1.2"/><circle cx="88.3" cy="70.9" r="1.2"/><circle cx="91.8" cy="70.9" r="1.2"/><circle cx="95.3" cy="70.9" r="1.2"/><circle cx="98.8" cy="70.9" r="1.2"/><circle cx="25.6" cy="74.4" r="1.2"/><circle cx="29.1" cy="74.4" r="1.2"/><circle cx="32.6" cy="74.4" r="1.2"/><circle cx="36.1" cy="74.4" r="1.2"/><circle cx="43" cy="74.4" r="1.2"/></g><text x="0" y="115" fill="#000000" font-size="5px" font-weight="bold" font-family="'Helvetica Neue', Helvetica, Arial-Unicode, Arial, Sans-serif">Created by Ted Grajeda</text><text x="0" y="120" fill="#000000" font-size="5px" font-weight="bold" font-family="'Helvetica Neue', Helvetica, Arial-Unicode, Arial, Sans-serif">from the Noun Project</text></svg>